<?xml version="1.0" encoding="UTF-8"?>
<svg width="700pt" height="700pt" version="1.1" viewBox="0 0 700 700" xmlns="http://www.w3.org/2000/svg" xmlns:xlink="http://www.w3.org/1999/xlink">
 <defs>
  <symbol id="v" overflow="visible">
   <path d="m2.9375-0.17188c-0.14844 0.074219-0.30469 0.13281-0.46875 0.17188-0.16797 0.039062-0.33984 0.0625-0.51562 0.0625-0.53125 0-0.95312-0.14453-1.2656-0.4375-0.3125-0.30078-0.46875-0.70703-0.46875-1.2188 0-0.50781 0.15625-0.91406 0.46875-1.2188 0.3125-0.30078 0.73438-0.45312 1.2656-0.45312 0.17578 0 0.34766 0.023437 0.51562 0.0625 0.16406 0.042969 0.32031 0.10547 0.46875 0.1875v0.65625c-0.14844-0.10156-0.29688-0.17578-0.45312-0.21875-0.14844-0.050781-0.30469-0.078125-0.46875-0.078125-0.29297 0-0.52344 0.09375-0.6875 0.28125-0.16797 0.1875-0.25 0.44922-0.25 0.78125 0 0.32422 0.082031 0.58594 0.25 0.78125 0.16406 0.1875 0.39453 0.28125 0.6875 0.28125 0.16406 0 0.32031-0.023438 0.46875-0.078125 0.15625-0.050781 0.30469-0.12891 0.45312-0.23438z"/>
  </symbol>
  <symbol id="c" overflow="visible">
   <path d="m2.1562-1.75c-0.074219-0.03125-0.14062-0.050781-0.20312-0.0625-0.0625-0.019531-0.13281-0.03125-0.20312-0.03125-0.19922 0-0.35156 0.070312-0.45312 0.20312-0.10547 0.125-0.15625 0.30469-0.15625 0.53125v1.1094h-0.76562v-2.4062h0.76562v0.40625c0.09375-0.16406 0.20312-0.28125 0.32812-0.34375 0.13281-0.070312 0.28906-0.10938 0.46875-0.10938h0.078125c0.03125 0 0.078125 0.007813 0.14062 0.015625z"/>
  </symbol>
  <symbol id="b" overflow="visible">
   <path d="m2.7656-1.2031v0.21875h-1.7969c0.019531 0.17969 0.082031 0.3125 0.1875 0.40625 0.11328 0.085937 0.27344 0.125 0.48438 0.125 0.15625 0 0.31641-0.019531 0.48438-0.0625 0.17578-0.050781 0.35156-0.125 0.53125-0.21875v0.59375c-0.1875 0.0625-0.375 0.10938-0.5625 0.14062-0.17969 0.039062-0.35547 0.0625-0.53125 0.0625-0.4375 0-0.77734-0.10938-1.0156-0.32812-0.24219-0.21875-0.35938-0.53125-0.35938-0.9375 0-0.38281 0.11328-0.6875 0.34375-0.90625 0.23828-0.22656 0.56641-0.34375 0.98438-0.34375 0.38281 0 0.6875 0.11719 0.90625 0.34375 0.22656 0.21875 0.34375 0.52344 0.34375 0.90625zm-0.78125-0.26562c0-0.14453-0.046875-0.25781-0.14062-0.34375-0.085938-0.09375-0.19531-0.14062-0.32812-0.14062-0.14844 0-0.26562 0.042969-0.35938 0.125-0.09375 0.085937-0.15234 0.20312-0.17188 0.35938z"/>
  </symbol>
  <symbol id="d" overflow="visible">
   <path d="m1.4375-1.0781c-0.15625 0-0.27734 0.027344-0.35938 0.078125-0.074219 0.054688-0.10938 0.13281-0.10938 0.23438 0 0.10547 0.03125 0.18359 0.09375 0.23438 0.0625 0.054688 0.14844 0.078125 0.26562 0.078125 0.14453 0 0.26562-0.050781 0.35938-0.15625 0.10156-0.10156 0.15625-0.23438 0.15625-0.39062v-0.078125zm1.1875-0.29688v1.375h-0.78125v-0.35938c-0.10547 0.14844-0.22656 0.25781-0.35938 0.32812-0.125 0.0625-0.27734 0.09375-0.45312 0.09375-0.25 0-0.45312-0.070312-0.60938-0.21875-0.15625-0.14453-0.23438-0.33203-0.23438-0.5625 0-0.28125 0.09375-0.48438 0.28125-0.60938 0.19531-0.13281 0.50391-0.20312 0.92188-0.20312h0.45312v-0.0625c0-0.125-0.046875-0.21094-0.14062-0.26562-0.09375-0.0625-0.24609-0.09375-0.45312-0.09375-0.16797 0-0.32422 0.023437-0.46875 0.0625-0.13672 0.03125-0.26172 0.078125-0.375 0.14062v-0.59375c0.15625-0.03125 0.31641-0.054688 0.48438-0.078125 0.16406-0.019531 0.33203-0.03125 0.5-0.03125 0.4375 0 0.75 0.085937 0.9375 0.25 0.19531 0.16797 0.29688 0.44531 0.29688 0.82812z"/>
  </symbol>
  <symbol id="a" overflow="visible">
   <path d="m1.2031-3.0781v0.67188h0.79688v0.54688h-0.79688v1.0312c0 0.10547 0.019531 0.17969 0.0625 0.21875 0.050781 0.042969 0.14062 0.0625 0.26562 0.0625h0.40625v0.54688h-0.65625c-0.3125 0-0.53125-0.0625-0.65625-0.1875s-0.1875-0.33594-0.1875-0.64062v-1.0312h-0.375v-0.54688h0.375v-0.67188z"/>
  </symbol>
  <symbol id="i" overflow="visible">
   <path d="m2-2.0469v-1.2812h0.78125v3.3281h-0.78125v-0.34375c-0.10547 0.13672-0.21875 0.24219-0.34375 0.3125-0.125 0.0625-0.27344 0.09375-0.4375 0.09375-0.30469 0-0.54688-0.11328-0.73438-0.34375-0.1875-0.23828-0.28125-0.54688-0.28125-0.92188 0-0.36328 0.09375-0.66016 0.28125-0.89062 0.1875-0.23828 0.42969-0.35938 0.73438-0.35938 0.15625 0 0.29688 0.03125 0.42188 0.09375 0.13281 0.0625 0.25391 0.16797 0.35938 0.3125zm-0.5 1.5469c0.16406 0 0.28906-0.054688 0.375-0.17188 0.082031-0.125 0.125-0.30078 0.125-0.53125 0-0.22656-0.042969-0.39844-0.125-0.51562-0.085938-0.125-0.21094-0.1875-0.375-0.1875-0.16797 0-0.29297 0.0625-0.375 0.1875-0.085938 0.11719-0.125 0.28906-0.125 0.51562 0 0.23047 0.039062 0.40625 0.125 0.53125 0.082031 0.11719 0.20703 0.17188 0.375 0.17188z"/>
  </symbol>
  <symbol id="h" overflow="visible">
   <path d="m1.6406-0.5c0.16406 0 0.28906-0.054688 0.375-0.17188 0.09375-0.125 0.14062-0.30078 0.14062-0.53125 0-0.22656-0.046875-0.39844-0.14062-0.51562-0.085937-0.125-0.21094-0.1875-0.375-0.1875-0.15625 0-0.28125 0.0625-0.375 0.1875-0.085937 0.11719-0.125 0.28906-0.125 0.51562 0 0.23047 0.039063 0.40625 0.125 0.53125 0.09375 0.11719 0.21875 0.17188 0.375 0.17188zm-0.5-1.5469c0.10156-0.14453 0.21875-0.25 0.34375-0.3125 0.13281-0.0625 0.28516-0.09375 0.45312-0.09375 0.28906 0 0.53125 0.12109 0.71875 0.35938 0.19531 0.23047 0.29688 0.52734 0.29688 0.89062 0 0.375-0.10156 0.68359-0.29688 0.92188-0.1875 0.23047-0.42969 0.34375-0.71875 0.34375-0.16797 0-0.32031-0.03125-0.45312-0.09375-0.125-0.070312-0.24219-0.17578-0.34375-0.3125v0.34375h-0.76562v-3.3281h0.76562z"/>
  </symbol>
  <symbol id="g" overflow="visible">
   <path d="m0.046875-2.4062h0.78125l0.64062 1.6406 0.54688-1.6406h0.76562l-1.0156 2.6406c-0.09375 0.25781-0.21094 0.44141-0.34375 0.54688-0.13672 0.11328-0.3125 0.17188-0.53125 0.17188h-0.45312v-0.51562h0.23438c0.13281 0 0.22656-0.023438 0.28125-0.0625 0.0625-0.042969 0.11328-0.11719 0.15625-0.21875l0.015625-0.0625z"/>
  </symbol>
  <symbol id="f" overflow="visible">
   <path d="m2.5938-2c0.09375-0.14453 0.20703-0.25391 0.34375-0.32812 0.13281-0.082031 0.28125-0.125 0.4375-0.125 0.28125 0 0.49219 0.085937 0.64062 0.25 0.14453 0.16797 0.21875 0.41406 0.21875 0.73438v1.4688h-0.78125v-1.25-0.0625-0.078125c0-0.17578-0.027344-0.30078-0.078125-0.375-0.042969-0.070313-0.12109-0.10938-0.23438-0.10938-0.14844 0-0.26172 0.0625-0.34375 0.1875-0.074219 0.11719-0.10938 0.28906-0.10938 0.51562v1.1719h-0.78125v-1.25c0-0.26953-0.027344-0.44141-0.078125-0.51562-0.042969-0.070313-0.12109-0.10938-0.23438-0.10938-0.14844 0-0.26172 0.0625-0.34375 0.1875-0.074219 0.11719-0.10938 0.28125-0.10938 0.5v1.1875h-0.78125v-2.4062h0.78125v0.35938c0.09375-0.13281 0.19531-0.23438 0.3125-0.29688 0.125-0.070312 0.25781-0.10938 0.40625-0.10938 0.16406 0 0.3125 0.042969 0.4375 0.125 0.13281 0.074219 0.23438 0.18359 0.29688 0.32812z"/>
  </symbol>
  <symbol id="u" overflow="visible">
   <path d="m0.375-2.4062h0.76562v2.4062h-0.76562zm0-0.92188h0.76562v0.625h-0.76562z"/>
  </symbol>
  <symbol id="t" overflow="visible">
   <path d="m1.6094-2.5156-0.89062 1.3281h0.89062zm-0.125-0.6875h0.90625v2.0156h0.46875v0.60938h-0.46875v0.57812h-0.78125v-0.57812h-1.4062v-0.71875z"/>
  </symbol>
  <symbol id="s" overflow="visible">
   <path d="m1.5938-1.5781c-0.14844 0-0.25781 0.046875-0.32812 0.14062-0.074219 0.09375-0.10938 0.23438-0.10938 0.42188s0.035156 0.32812 0.10938 0.42188c0.070313 0.09375 0.17969 0.14062 0.32812 0.14062 0.14453 0 0.25391-0.046875 0.32812-0.14062 0.070313-0.09375 0.10938-0.23438 0.10938-0.42188s-0.039062-0.32812-0.10938-0.42188c-0.074219-0.09375-0.18359-0.14062-0.32812-0.14062zm1.0156-1.5312v0.57812c-0.13672-0.0625-0.26562-0.10938-0.39062-0.14062-0.11719-0.03125-0.23047-0.046875-0.34375-0.046875-0.25 0-0.44531 0.074219-0.57812 0.21875-0.13672 0.13672-0.21484 0.33594-0.23438 0.59375 0.09375-0.0625 0.19141-0.10938 0.29688-0.14062 0.11328-0.039063 0.23438-0.0625 0.35938-0.0625 0.33203 0 0.59766 0.10156 0.79688 0.29688 0.19531 0.1875 0.29688 0.43359 0.29688 0.73438 0 0.34375-0.11719 0.62109-0.34375 0.82812-0.21875 0.21094-0.51562 0.3125-0.89062 0.3125-0.41797 0-0.74219-0.14062-0.96875-0.42188-0.23047-0.28125-0.34375-0.67578-0.34375-1.1875 0-0.53125 0.13281-0.94531 0.40625-1.25 0.26953-0.30078 0.63281-0.45312 1.0938-0.45312 0.14453 0 0.28516 0.011719 0.42188 0.03125 0.14453 0.023438 0.28516 0.058594 0.42188 0.10938z"/>
  </symbol>
  <symbol id="r" overflow="visible">
   <path d="m1.5312-1.4375c-0.15625 0-0.27734 0.046875-0.35938 0.14062-0.085937 0.085937-0.125 0.20312-0.125 0.35938s0.039063 0.27734 0.125 0.35938c0.082031 0.085937 0.20312 0.125 0.35938 0.125s0.26953-0.039063 0.34375-0.125c0.082031-0.082031 0.125-0.20312 0.125-0.35938 0-0.16406-0.042969-0.28906-0.125-0.375-0.074219-0.082031-0.1875-0.125-0.34375-0.125zm-0.60938-0.26562c-0.1875-0.0625-0.33594-0.14844-0.4375-0.26562-0.09375-0.125-0.14062-0.27344-0.14062-0.45312 0-0.26953 0.097656-0.47656 0.29688-0.625 0.19531-0.14453 0.49219-0.21875 0.89062-0.21875 0.38281 0 0.67578 0.074219 0.875 0.21875 0.20703 0.13672 0.3125 0.34375 0.3125 0.625 0 0.17969-0.054688 0.32812-0.15625 0.45312-0.09375 0.11719-0.24219 0.20312-0.4375 0.26562 0.21875 0.0625 0.37891 0.16406 0.48438 0.29688 0.11328 0.13672 0.17188 0.30469 0.17188 0.5 0 0.32422-0.10547 0.57031-0.3125 0.73438-0.21094 0.15625-0.52344 0.23438-0.9375 0.23438-0.41797 0-0.73438-0.078125-0.95312-0.23438-0.21094-0.16406-0.3125-0.41016-0.3125-0.73438 0-0.19531 0.050781-0.36328 0.15625-0.5 0.11328-0.13281 0.28125-0.23438 0.5-0.29688zm0.20312-0.64062c0 0.125 0.03125 0.22656 0.09375 0.29688 0.070312 0.0625 0.17578 0.09375 0.3125 0.09375 0.125 0 0.22266-0.03125 0.29688-0.09375 0.070313-0.070313 0.10938-0.17188 0.10938-0.29688s-0.039062-0.21875-0.10938-0.28125c-0.074219-0.070312-0.17188-0.10938-0.29688-0.10938-0.13672 0-0.24219 0.039063-0.3125 0.10938-0.0625 0.0625-0.09375 0.15625-0.09375 0.28125z"/>
  </symbol>
  <symbol id="q" overflow="visible">
   <path d="m1.9531-3.3281v0.5h-0.42188c-0.11719 0-0.19531 0.023437-0.23438 0.0625-0.042969 0.03125-0.0625 0.10156-0.0625 0.20312v0.15625h0.65625v0.54688h-0.65625v1.8594h-0.76562v-1.8594h-0.39062v-0.54688h0.39062v-0.15625c0-0.25781 0.070312-0.45312 0.21875-0.57812 0.14453-0.125 0.36719-0.1875 0.67188-0.1875z"/>
  </symbol>
  <symbol id="e" overflow="visible">
   <path d="m1.5156-1.9062c-0.17969 0-0.3125 0.0625-0.40625 0.1875-0.085937 0.11719-0.125 0.28906-0.125 0.51562 0 0.23047 0.039063 0.40625 0.125 0.53125 0.09375 0.125 0.22656 0.1875 0.40625 0.1875 0.16406 0 0.28906-0.0625 0.375-0.1875 0.09375-0.125 0.14062-0.30078 0.14062-0.53125 0-0.22656-0.046875-0.39844-0.14062-0.51562-0.085937-0.125-0.21094-0.1875-0.375-0.1875zm0-0.54688c0.40625 0 0.72266 0.10938 0.95312 0.32812 0.23828 0.21875 0.35938 0.52734 0.35938 0.92188 0 0.39844-0.12109 0.71094-0.35938 0.9375-0.23047 0.21875-0.54688 0.32812-0.95312 0.32812-0.41797 0-0.74609-0.10938-0.98438-0.32812-0.23047-0.22656-0.34375-0.53906-0.34375-0.9375 0-0.39453 0.11328-0.70312 0.34375-0.92188 0.23828-0.21875 0.56641-0.32812 0.98438-0.32812z"/>
  </symbol>
  <symbol id="p" overflow="visible">
   <path d="m2.7812-1.4688v1.4688h-0.76562v-1.1094c0-0.21875-0.007813-0.36328-0.015625-0.4375-0.011719-0.082031-0.027344-0.14062-0.046875-0.17188-0.03125-0.050781-0.074219-0.085938-0.125-0.10938-0.054687-0.03125-0.10938-0.046875-0.17188-0.046875-0.16797 0-0.29688 0.0625-0.39062 0.1875-0.085937 0.11719-0.125 0.28125-0.125 0.5v1.1875h-0.76562v-3.3281h0.76562v1.2812c0.11328-0.14453 0.23438-0.25 0.35938-0.3125 0.13281-0.0625 0.28125-0.09375 0.4375-0.09375 0.28125 0 0.48828 0.085937 0.625 0.25 0.14453 0.16797 0.21875 0.41406 0.21875 0.73438z"/>
  </symbol>
  <symbol id="o" overflow="visible">
   <path d="m0.40625-3.2031h0.92188l1.1562 2.2031v-2.2031h0.78125v3.2031h-0.92188l-1.1562-2.2031v2.2031h-0.78125z"/>
  </symbol>
  <symbol id="n" overflow="visible">
   <path d="m0.34375-0.9375v-1.4688h0.76562v0.25 0.48438 0.39062c0 0.19922 0.003906 0.33984 0.015625 0.42188 0.007812 0.085937 0.023438 0.14844 0.046875 0.1875 0.03125 0.054687 0.070313 0.09375 0.125 0.125 0.050781 0.023437 0.10938 0.03125 0.17188 0.03125 0.16406 0 0.28906-0.0625 0.375-0.1875 0.09375-0.125 0.14062-0.29688 0.14062-0.51562v-1.1875h0.76562v2.4062h-0.76562v-0.34375c-0.11719 0.13672-0.24219 0.24219-0.375 0.3125-0.125 0.0625-0.26562 0.09375-0.42188 0.09375-0.27344 0-0.48047-0.082031-0.625-0.25-0.14844-0.17578-0.21875-0.42578-0.21875-0.75z"/>
  </symbol>
  <symbol id="m" overflow="visible">
   <path d="m2.7812-1.4688v1.4688h-0.76562v-1.125c0-0.20703-0.007813-0.34766-0.015625-0.42188-0.011719-0.082031-0.027344-0.14062-0.046875-0.17188-0.03125-0.050781-0.074219-0.085938-0.125-0.10938-0.054687-0.03125-0.10938-0.046875-0.17188-0.046875-0.16797 0-0.29688 0.0625-0.39062 0.1875-0.085937 0.11719-0.125 0.28125-0.125 0.5v1.1875h-0.76562v-2.4062h0.76562v0.35938c0.11328-0.14453 0.23438-0.25 0.35938-0.3125 0.13281-0.0625 0.28125-0.09375 0.4375-0.09375 0.28125 0 0.48828 0.085937 0.625 0.25 0.14453 0.16797 0.21875 0.41406 0.21875 0.73438z"/>
  </symbol>
  <symbol id="l" overflow="visible">
   <path d="m0.40625-3.2031h1.3594c0.41406 0 0.72656 0.09375 0.9375 0.28125 0.21875 0.17969 0.32812 0.43359 0.32812 0.76562 0 0.33594-0.10938 0.59375-0.32812 0.78125-0.21094 0.17969-0.52344 0.26562-0.9375 0.26562h-0.53125v1.1094h-0.82812zm0.82812 0.59375v0.90625h0.45312c0.15625 0 0.27344-0.035156 0.35938-0.10938 0.09375-0.082031 0.14062-0.19531 0.14062-0.34375 0-0.14453-0.046875-0.25391-0.14062-0.32812-0.085937-0.082031-0.20312-0.125-0.35938-0.125z"/>
  </symbol>
  <symbol id="k" overflow="visible">
   <path d="m0.375-2.4062h0.76562v2.3594c0 0.32031-0.078125 0.56641-0.23438 0.73438-0.15625 0.17578-0.38281 0.26562-0.67188 0.26562h-0.375v-0.51562h0.125c0.14453 0 0.24219-0.03125 0.29688-0.09375 0.0625-0.0625 0.09375-0.19531 0.09375-0.39062zm0-0.92188h0.76562v0.625h-0.76562z"/>
  </symbol>
  <symbol id="j" overflow="visible">
   <path d="m2.3125-2.3281v0.625c-0.10547-0.070313-0.21094-0.125-0.3125-0.15625-0.10547-0.03125-0.21484-0.046875-0.32812-0.046875-0.21875 0-0.39062 0.0625-0.51562 0.1875-0.11719 0.125-0.17188 0.29688-0.17188 0.51562 0 0.23047 0.054687 0.40625 0.17188 0.53125 0.125 0.125 0.29688 0.1875 0.51562 0.1875 0.11328 0 0.22266-0.015625 0.32812-0.046875 0.11328-0.039062 0.21875-0.097656 0.3125-0.17188v0.625c-0.125 0.054688-0.25 0.085938-0.375 0.10938-0.11719 0.019531-0.23438 0.03125-0.35938 0.03125-0.4375 0-0.78125-0.10938-1.0312-0.32812-0.24219-0.22656-0.35938-0.53906-0.35938-0.9375 0-0.39453 0.11719-0.70312 0.35938-0.92188 0.25-0.21875 0.59375-0.32812 1.0312-0.32812 0.125 0 0.24219 0.011719 0.35938 0.03125 0.125 0.023437 0.25 0.054687 0.375 0.09375z"/>
  </symbol>
 </defs>
 <g>
  <path d="m42.746 435.16v-206.59l-23.734 6.1523v194.29l23.734 6.1523zm430.77 6.1523c8.793 0 15.824 7.0312 15.824 15.824s-7.0312 15.824-15.824 15.824-14.945-7.0312-14.945-15.824 6.1523-15.824 14.945-15.824zm-45.715 0c8.793 0 15.824 7.0312 15.824 15.824s-7.0312 15.824-15.824 15.824-15.824-7.0312-15.824-15.824 7.0312-15.824 15.824-15.824zm-45.715 0c8.793 0 15.824 7.0312 15.824 15.824s-7.0312 15.824-15.824 15.824c-8.793 0-15.824-7.0312-15.824-15.824s7.0312-15.824 15.824-15.824zm-212.75-367.47c-14.945 1.7578-29.012 7.9102-39.559 16.703l8.793 8.793c8.793-6.1523 19.34-11.43 30.77-12.309v-13.188zm232.97-50.988c-19.34 2.6367-37.801 9.6719-51.867 21.977l11.43 11.43c11.43-8.793 25.496-14.945 40.441-16.703v-16.703zm-109.01 126.59c11.43 48.352 50.109 85.273 99.34 93.188 63.297 11.43 124.84-29.891 139.78-93.188 1.7578-8.793 2.6367-17.582 2.6367-27.254 0-67.691-54.504-122.2-122.2-122.2-67.691 0-122.2 54.504-122.2 122.2 0 9.6719 0.87891 18.461 2.6367 27.254zm196.04-27.254c0 42.199-34.285 76.484-76.484 76.484s-76.484-34.285-76.484-76.484c0-42.199 34.285-76.484 76.484-76.484s76.484 34.285 76.484 76.484zm-76.484-107.25c59.781 0 107.25 48.352 107.25 107.25 0 59.781-47.473 107.25-107.25 107.25-58.902 0-107.25-47.473-107.25-107.25 0-58.902 48.352-107.25 107.25-107.25zm-77.363 44.836c-12.309 14.066-19.34 32.527-21.977 51.867h16.703c1.7578-14.945 7.9102-29.012 16.703-40.441l-11.43-11.43zm-21.977 72.969c2.6367 20.219 9.6719 37.801 21.977 52.746l11.43-12.309c-8.793-11.43-14.945-24.617-16.703-40.441h-16.703zm36.922 67.691c14.066 11.43 32.527 19.34 51.867 21.098v-15.824c-14.945-2.6367-29.012-7.9102-40.441-16.703l-11.43 11.43zm72.969 21.098c20.219-1.7578 37.801-9.6719 52.746-21.098l-12.309-11.43c-11.43 8.793-24.617 14.066-40.441 16.703v15.824zm67.691-36.043c11.43-14.945 19.34-32.527 21.098-52.746h-15.824c-2.6367 15.824-7.9102 29.012-16.703 40.441l11.43 12.309zm21.098-73.848c-1.7578-19.34-9.6719-37.801-21.098-51.867l-11.43 11.43c8.793 11.43 14.066 25.496 16.703 40.441h15.824zm-36.043-66.812c-14.945-12.309-32.527-19.34-52.746-21.977v16.703c15.824 1.7578 29.012 7.9102 40.441 16.703l12.309-11.43zm-390.33 126.59c8.793 36.922 38.68 65.055 75.605 72.09 49.23 8.793 96.703-23.734 108.13-72.09 1.7578-7.0312 1.7578-14.066 1.7578-21.098 0-51.867-41.32-94.066-94.066-94.066-51.867 0-94.066 42.199-94.066 94.066 0 7.0312 0.87891 14.066 2.6367 21.098zm150.33-21.098c0 32.527-26.375 58.902-58.902 58.902s-58.902-26.375-58.902-58.902 26.375-58.902 58.902-58.902 58.902 26.375 58.902 58.902zm-58.902-81.758c45.715 0 82.637 36.922 82.637 81.758 0 45.715-36.922 82.637-82.637 82.637-44.836 0-81.758-36.922-81.758-82.637 0-44.836 36.922-81.758 81.758-81.758zm-59.781 34.285c-8.793 10.551-14.945 24.617-16.703 39.559h13.188c0.87891-11.43 6.1523-21.977 12.309-30.77l-8.793-8.793zm-16.703 56.266c1.7578 14.945 7.9102 29.012 16.703 39.559l8.793-8.793c-6.1523-8.793-11.43-19.34-12.309-30.77h-13.188zm29.012 50.988c10.551 9.6719 24.617 15.824 39.559 16.703v-12.309c-11.43-1.7578-21.977-6.1523-30.77-13.188l-8.793 8.793zm56.266 16.703c14.945-1.7578 29.012-7.0312 39.559-16.703l-8.793-8.793c-8.793 7.0312-19.34 11.43-30.77 13.188v12.309zm50.988-28.133c9.6719-10.551 15.824-24.617 16.703-39.559h-12.309c-1.7578 11.43-6.1523 21.977-13.188 30.77l8.793 8.793zm16.703-56.266c-0.87891-14.945-7.0312-29.012-16.703-39.559l-8.793 8.793c7.0312 8.793 11.43 19.34 13.188 30.77h12.309zm-28.133-51.867c-10.551-8.793-24.617-14.945-39.559-16.703v13.188c11.43 0.87891 21.977 6.1523 30.77 12.309l8.793-8.793zm318.24 65.055c6.1523 7.0312 10.551 15.824 10.551 25.496v283.96c0 21.098-16.703 37.801-37.801 37.801h-421.1c-20.219 0-36.922-16.703-36.922-37.801v-283.96c0-10.551 4.3945-20.219 12.309-27.254 0 7.0312 0.87891 14.066 2.6367 21.098 9.6719 41.32 43.078 73.848 86.152 80.879 55.383 9.6719 109.01-26.375 122.2-81.758 0.87891-3.5156 1.7578-7.9102 1.7578-11.43 14.945 48.352 56.266 84.395 106.38 93.188 69.449 12.309 136.27-32.527 153.85-100.22zm26.375 241.76 81.758 123.96h29.012v-378.9h-29.012l-81.758 123.96zm-125.71 121.32v41.32h-283.96v-41.32z" fill-rule="evenodd"/>
  <use x="19.011719" y="573.1875" xlink:href="#v"/>
  <use x="22.238281" y="573.1875" xlink:href="#c"/>
  <use x="24.40625" y="573.1875" xlink:href="#b"/>
  <use x="27.386719" y="573.1875" xlink:href="#d"/>
  <use x="30.351562" y="573.1875" xlink:href="#a"/>
  <use x="32.453125" y="573.1875" xlink:href="#b"/>
  <use x="35.433594" y="573.1875" xlink:href="#i"/>
  <use x="40.109375" y="573.1875" xlink:href="#h"/>
  <use x="43.257812" y="573.1875" xlink:href="#g"/>
  <use x="47.652344" y="573.1875" xlink:href="#a"/>
  <use x="49.753906" y="573.1875" xlink:href="#d"/>
  <use x="52.71875" y="573.1875" xlink:href="#d"/>
  <use x="55.6875" y="573.1875" xlink:href="#f"/>
  <use x="60.265625" y="573.1875" xlink:href="#u"/>
  <use x="61.773438" y="573.1875" xlink:href="#c"/>
  <use x="63.941406" y="573.1875" xlink:href="#t"/>
  <use x="67" y="573.1875" xlink:href="#s"/>
  <use x="70.058594" y="573.1875" xlink:href="#r"/>
  <use x="19.011719" y="577.582031" xlink:href="#q"/>
  <use x="20.921875" y="577.582031" xlink:href="#c"/>
  <use x="23.089844" y="577.582031" xlink:href="#e"/>
  <use x="26.109375" y="577.582031" xlink:href="#f"/>
  <use x="32.222656" y="577.582031" xlink:href="#a"/>
  <use x="34.324219" y="577.582031" xlink:href="#p"/>
  <use x="37.453125" y="577.582031" xlink:href="#b"/>
  <use x="41.964844" y="577.582031" xlink:href="#o"/>
  <use x="45.640625" y="577.582031" xlink:href="#e"/>
  <use x="48.660156" y="577.582031" xlink:href="#n"/>
  <use x="51.792969" y="577.582031" xlink:href="#m"/>
  <use x="56.449219" y="577.582031" xlink:href="#l"/>
  <use x="59.671875" y="577.582031" xlink:href="#c"/>
  <use x="61.839844" y="577.582031" xlink:href="#e"/>
  <use x="64.859375" y="577.582031" xlink:href="#k"/>
  <use x="66.367188" y="577.582031" xlink:href="#b"/>
  <use x="69.347656" y="577.582031" xlink:href="#j"/>
  <use x="71.953125" y="577.582031" xlink:href="#a"/>
 </g>
</svg>
